<?xml version="1.0" standalone="no"?>
<!DOCTYPE svg PUBLIC "-//W3C//DTD SVG 20010904//EN"
 "http://www.w3.org/TR/2001/REC-SVG-20010904/DTD/svg10.dtd">
<svg version="1.0" xmlns="http://www.w3.org/2000/svg"
 width="212.000000pt" height="238.000000pt" viewBox="0 0 212.000000 238.000000"
 preserveAspectRatio="xMidYMid meet">

<g transform="translate(0.000000,238.000000) scale(0.100000,-0.100000)"
fill="#000000" stroke="none">
<path d="M975 2352 c-2 -3 -26 -6 -52 -8 -26 -2 -59 -9 -71 -16 -20 -11 -23
-18 -19 -53 5 -50 -26 -110 -52 -100 -9 4 -27 9 -41 11 -14 3 -32 13 -42 24
-17 21 -82 28 -93 10 -3 -5 -14 -10 -23 -10 -18 0 -62 -41 -62 -58 0 -6 -9
-14 -20 -17 -11 -3 -20 -11 -20 -16 0 -5 -5 -9 -11 -9 -15 0 -49 -39 -49 -56
0 -7 -6 -19 -13 -26 -40 -42 -55 -98 -26 -98 5 0 9 -5 9 -10 0 -6 11 -22 25
-36 20 -20 29 -23 44 -14 11 5 27 10 37 10 14 0 14 -2 3 -16 -7 -8 -21 -13
-31 -11 -22 6 -25 -21 -3 -29 8 -4 15 -12 15 -20 0 -7 12 -17 26 -20 21 -5 31
-2 45 17 l19 24 0 -22 c0 -12 -11 -42 -25 -67 -20 -36 -25 -59 -25 -115 0 -70
20 -142 47 -169 7 -7 13 -20 13 -28 0 -7 9 -19 20 -26 11 -7 20 -20 20 -28 0
-9 4 -20 9 -25 18 -19 27 -235 14 -330 -8 -59 -9 -60 -41 -63 -24 -2 -32 -7
-28 -18 3 -7 2 -13 -2 -11 -15 5 -54 -47 -54 -72 0 -17 -11 -36 -33 -56 -27
-25 -34 -40 -39 -87 -4 -32 -12 -60 -17 -63 -15 -10 -11 -55 6 -55 11 0 15
-12 15 -45 0 -24 8 -60 17 -79 16 -30 24 -36 68 -43 45 -7 50 -11 53 -36 l3
-27 435 0 434 0 0 23 c0 18 8 25 43 35 31 9 49 22 68 50 24 36 26 46 24 133
-2 88 -2 90 4 24 4 -38 8 -63 9 -54 1 9 9 19 17 23 13 5 14 10 2 38 -8 18 -17
50 -21 71 -4 20 -10 37 -14 37 -13 0 -47 72 -44 91 3 19 -26 68 -40 69 -12 0
-9 -38 2 -43 6 -3 5 -4 -2 -3 -7 1 -19 15 -27 30 -7 16 -21 31 -31 33 -20 5
-40 43 -40 78 0 13 -5 27 -12 31 -8 5 -9 -3 -5 -30 3 -20 3 -44 0 -53 -5 -12
-9 -11 -19 8 -13 24 -13 24 -14 2 0 -12 11 -30 25 -41 23 -19 36 -40 16 -28
-5 3 -9 0 -8 -7 1 -35 -4 -46 -22 -44 -11 0 -18 4 -15 8 2 4 0 10 -5 14 -6 3
-22 45 -37 93 -15 48 -30 89 -34 92 -22 16 -26 80 -13 238 l8 104 23 -20 c12
-11 22 -23 22 -27 0 -4 7 -13 16 -20 12 -8 19 -36 24 -96 7 -79 7 -81 10 -29
2 30 3 67 2 83 -1 15 2 27 7 27 16 0 23 -59 16 -132 -5 -51 -4 -69 4 -64 7 5
11 41 11 96 0 48 3 90 8 92 4 2 22 32 41 68 19 36 43 75 54 88 11 12 18 22 14
22 -4 0 -2 12 4 28 6 15 13 36 16 47 9 32 3 169 -7 179 -6 6 -10 16 -10 24 0
7 -7 20 -15 28 -19 19 -19 34 -1 34 8 0 16 -10 18 -22 5 -37 49 -36 76 1 12
16 19 37 16 45 -10 25 -26 19 -19 -6 l7 -23 -17 23 c-9 12 -22 22 -30 22 -8 0
-17 4 -20 10 -3 6 1 7 9 4 10 -4 16 -1 16 7 0 12 2 12 9 0 5 -8 16 -11 24 -8
10 4 18 -1 22 -14 6 -19 8 -19 43 8 69 51 75 71 39 124 -12 19 -23 44 -24 57
-2 28 -20 52 -39 52 -26 0 -64 23 -70 44 -8 24 -19 36 -56 60 -31 20 -85 14
-115 -13 -21 -18 -68 -41 -86 -41 -16 1 -47 70 -47 106 0 16 -9 43 -19 61 -18
28 -25 32 -83 37 -95 9 -188 12 -193 8z m135 -35 c0 -5 9 -2 20 8 17 16 20 16
20 2 0 -12 7 -15 35 -10 31 5 35 3 35 -16 0 -11 4 -21 9 -21 14 0 24 -59 12
-73 -7 -9 -5 -16 8 -24 14 -9 20 -30 25 -82 7 -74 1 -116 -15 -106 -9 6 -12
-23 -9 -82 1 -20 -3 -33 -11 -33 -6 0 -18 -8 -25 -17 -14 -20 -19 -18 -29 15
-5 17 0 29 24 52 21 18 28 31 20 35 -6 4 -9 22 -7 41 3 25 0 34 -14 38 -15 3
-18 0 -12 -17 3 -12 6 -24 6 -27 0 -22 -4 -30 -16 -30 -8 0 -16 -6 -19 -12 -2
-7 -8 -10 -12 -6 -4 4 2 19 14 34 28 36 26 46 -6 33 -31 -11 -70 -4 -94 17
-14 13 -18 13 -29 -1 -7 -8 -21 -15 -31 -15 -11 0 -19 -4 -19 -10 0 -5 -7 -10
-16 -10 -10 0 -14 6 -11 14 3 8 1 17 -6 20 -7 4 -1 4 13 2 l25 -5 -27 20 c-16
12 -28 25 -28 31 0 5 7 2 16 -6 17 -17 69 -22 78 -7 4 5 1 11 -6 13 -10 4 67
2 82 -1 3 -1 -2 -6 -10 -11 -21 -14 35 -13 61 0 22 13 26 -2 4 -20 -9 -8 -29
-10 -52 -6 -27 4 -32 3 -18 -4 33 -14 64 -11 85 10 11 11 22 15 25 9 10 -15
45 36 45 64 0 13 -6 29 -13 36 -11 8 -13 5 -10 -17 3 -20 -2 -31 -18 -41 -17
-10 -24 -11 -27 -2 -2 6 -10 18 -19 26 -13 13 -13 15 1 15 8 0 18 5 21 10 4 7
-8 8 -34 4 -36 -6 -41 -4 -41 12 0 34 16 47 49 42 24 -4 28 -2 20 9 -18 21
-53 15 -79 -12 -20 -21 -22 -29 -12 -49 13 -28 7 -36 -25 -36 -20 0 -23 5 -23
41 0 23 -7 47 -15 55 -15 15 -66 16 -65 1 1 -14 -25 -35 -31 -25 -3 5 -9 0
-12 -12 -5 -20 -4 -21 18 -6 30 20 42 20 61 1 14 -13 11 -15 -23 -15 -36 -1
-37 -2 -19 -15 11 -8 15 -15 10 -15 -16 0 -35 -50 -28 -73 5 -15 3 -19 -8 -15
-10 4 -13 -2 -10 -28 3 -26 10 -36 28 -40 13 -3 24 -12 24 -20 0 -19 -19 -18
-26 1 -4 8 -12 15 -19 15 -15 0 -28 83 -14 88 16 6 10 38 -11 57 -21 19 -27
45 -10 45 6 0 10 11 10 25 0 48 -19 25 -26 -31 l-7 -57 -18 24 c-20 26 -24 56
-10 78 7 11 11 10 20 -5 8 -15 10 -5 8 45 l-2 65 34 8 c26 7 37 5 52 -8 10 -9
19 -20 19 -24 0 -8 -32 -6 -47 3 -6 4 -18 4 -27 1 -12 -5 -13 -9 -3 -19 10
-11 13 -10 20 4 5 10 6 7 4 -11 -5 -31 -4 -32 21 -19 9 5 25 12 35 15 14 5 16
10 7 25 -13 25 -13 41 0 41 6 0 10 -11 10 -25 0 -16 6 -25 15 -25 13 0 14 4 5
20 -15 28 -6 37 30 32 21 -3 30 -10 30 -23 0 -11 -4 -19 -10 -19 -5 0 -10 5
-10 11 0 5 -4 7 -10 4 -19 -12 -10 -25 18 -25 26 0 28 2 24 35 -4 29 -1 34 12
29 9 -3 16 -11 16 -17z m-111 -106 c7 -5 12 -13 10 -18 -2 -5 -12 -1 -21 9
-19 19 -13 24 11 9z m-326 -13 c21 -16 26 -128 6 -128 -6 0 -5 -8 2 -21 16
-31 0 -40 -46 -27 -23 6 -34 13 -25 16 17 5 40 31 40 45 0 6 -9 0 -19 -12 -22
-25 -31 -28 -40 -12 -4 6 -20 7 -44 1 -21 -4 -39 -4 -43 1 -3 5 -17 9 -31 9
-23 0 -25 -3 -19 -30 4 -23 0 -36 -14 -50 -21 -21 -26 -40 -11 -40 5 0 20 20
32 45 22 44 24 45 70 45 47 0 59 -9 59 -47 0 -9 8 -22 18 -29 20 -16 52 -18
52 -4 0 6 -9 10 -19 10 -28 0 -34 27 -8 34 36 9 53 -44 20 -63 -12 -7 -14 -13
-7 -18 22 -15 26 -51 7 -62 -10 -6 -13 -11 -7 -11 15 0 25 -26 18 -45 -8 -21
-24 -19 -24 4 0 10 -9 30 -20 44 -30 37 -23 66 8 35 6 -6 14 -9 17 -7 5 6 -37
69 -47 69 -3 0 -9 -22 -13 -50 -5 -39 -13 -54 -35 -70 -33 -24 -37 -24 -56 -6
-12 13 -11 15 6 21 11 3 20 11 20 16 0 5 8 9 18 9 15 0 15 -2 2 -11 -13 -9
-13 -10 0 -6 10 2 15 16 15 37 0 21 -6 35 -15 38 -13 4 -13 3 -2 -11 8 -9 11
-21 7 -27 -11 -17 -23 -11 -18 9 3 10 0 22 -6 25 -19 12 -12 27 19 37 34 12
41 30 8 21 -14 -3 -19 -2 -14 6 11 18 -37 15 -60 -4 -18 -14 -18 -15 5 -8 l24
6 -27 -28 c-23 -25 -29 -27 -46 -16 -11 6 -27 12 -35 12 -21 0 -19 14 9 47 13
16 26 40 28 53 2 18 15 30 43 44 22 10 42 22 43 27 4 9 61 -26 73 -44 8 -11
29 -1 29 13 0 6 -16 16 -35 24 -23 10 -35 22 -35 34 0 25 23 44 43 36 9 -3 24
1 32 10 20 19 26 20 48 4z m62 -28 c3 -5 -1 -10 -9 -10 -9 0 -16 5 -16 10 0 6
4 10 9 10 6 0 13 -4 16 -10z m769 4 c9 -3 16 -12 16 -19 0 -8 5 -17 12 -21 7
-5 8 -3 3 6 -5 9 -4 11 3 6 7 -4 12 -16 12 -27 0 -18 -10 -23 -37 -20 -7 1
-13 -6 -13 -16 0 -11 -15 -24 -40 -35 -23 -9 -40 -23 -40 -32 0 -19 -30 -22
-31 -3 0 10 -2 10 -6 0 -2 -7 -16 -13 -29 -13 -13 0 -24 -4 -24 -10 0 -5 -4
-10 -10 -10 -14 0 -13 13 3 34 7 10 28 19 46 21 24 1 36 9 47 30 12 24 12 26
-1 21 -10 -3 -15 1 -16 12 -1 11 -4 8 -8 -7 -10 -38 -91 -76 -91 -42 0 4 18
15 40 25 22 10 40 22 40 26 0 12 -52 -8 -62 -23 -4 -6 -11 -8 -15 -3 -4 4 7
21 26 38 24 22 39 28 57 24 16 -4 24 -2 24 7 0 31 50 48 94 31z m-704 -25 c0
-14 -17 -10 -23 5 -4 10 -1 13 9 9 7 -3 14 -9 14 -14z m-14 -26 c24 -23 33
-53 10 -33 -14 11 -16 9 -16 -13 0 -14 -5 -27 -11 -29 -8 -3 -8 -10 2 -25 15
-25 7 -41 -13 -24 -7 6 -23 19 -35 29 -23 18 -30 52 -18 90 9 27 53 30 81 5z
m216 -8 c3 -13 1 -22 -3 -19 -9 5 -13 44 -5 44 2 0 6 -11 8 -25z m138 -25 c5
0 11 8 14 18 3 10 4 7 3 -8 -1 -15 -9 -26 -21 -28 -11 -3 -16 0 -12 7 4 6 3
11 -2 11 -6 0 -7 10 -4 23 l7 22 3 -22 c2 -13 7 -23 12 -23z m-279 -9 c12 20
22 3 15 -26 -10 -41 -43 -33 -49 13 -6 47 4 64 16 28 7 -21 12 -25 18 -15z
m127 9 c10 -17 10 -20 -3 -20 -8 0 -15 2 -15 4 0 2 -3 11 -6 20 -9 23 9 20 24
-4z m636 -15 c33 -14 54 -41 22 -29 -7 3 -22 -6 -33 -20 -15 -18 -23 -22 -31
-14 -6 6 -19 12 -29 13 -10 0 -24 4 -31 9 -17 10 -15 36 3 36 8 0 15 5 15 10
0 15 42 12 84 -5z m-817 -45 c0 -29 -1 -30 -20 -13 -17 16 -17 18 -3 21 9 2
16 8 16 13 0 5 2 9 3 9 2 0 4 -14 4 -30z m693 7 c0 -7 -9 -18 -20 -25 -11 -7
-20 -19 -20 -27 0 -8 -7 -15 -15 -15 -9 0 -15 9 -15 25 0 15 6 25 14 25 7 0
19 7 26 15 15 18 30 19 30 2z m-748 -61 c14 -10 18 -20 14 -33 -5 -11 -10 -13
-14 -7 -4 6 -17 14 -29 18 -35 11 -18 -20 18 -33 16 -5 29 -17 29 -25 0 -21
-19 -30 -26 -12 -3 9 -14 16 -24 16 -10 0 -21 6 -23 13 -3 7 -6 5 -6 -5 -1
-10 13 -24 34 -34 36 -17 49 -54 20 -54 -8 0 -15 7 -15 15 0 8 -7 15 -15 15
-8 0 -22 14 -31 32 -15 29 -15 33 0 60 10 15 15 32 12 37 -4 5 -3 16 0 25 5
14 8 14 20 1 8 -8 24 -21 36 -29z m129 27 c0 -16 2 -15 10 2 7 16 8 14 7 -15
-2 -52 3 -97 9 -83 3 10 7 10 18 0 7 -7 11 -15 9 -19 -5 -8 52 -40 81 -45 21
-4 36 -22 28 -36 -3 -4 -12 -5 -22 -1 -9 3 -31 6 -48 5 -27 -1 -33 2 -33 19 0
11 -4 20 -10 20 -5 0 -10 8 -11 18 0 16 -1 16 -7 0 -4 -10 -12 -14 -18 -10
-21 14 -54 80 -48 96 3 9 1 16 -5 16 -15 0 -14 37 2 43 24 10 37 7 38 -10z
m759 7 c0 -5 -2 -10 -4 -10 -2 0 -12 -3 -22 -7 -16 -6 -17 -5 -4 10 17 19 30
22 30 7z m-343 -22 c-3 -8 -6 -5 -6 6 -1 11 2 17 5 13 3 -3 4 -12 1 -19z m295
2 c14 -10 28 -17 31 -14 3 3 3 -3 0 -15 -3 -14 -1 -21 9 -21 7 0 24 -7 36 -16
18 -12 19 -18 9 -29 -8 -8 -16 -10 -24 -3 -8 6 -13 2 -16 -14 -5 -21 -5 -21
-4 2 2 18 7 24 20 22 9 -2 17 2 17 8 0 9 -15 14 -34 11 -5 -1 -17 5 -26 14
-12 11 -32 16 -57 13 -34 -3 -38 0 -41 21 -6 42 39 54 80 21z m-502 0 c0 -6
-7 -13 -16 -17 -13 -5 -13 -7 -2 -14 9 -6 6 -9 -10 -9 -13 0 -20 4 -17 10 4 6
1 9 -6 8 -7 -2 -15 5 -17 15 -3 14 3 17 32 17 20 0 36 -5 36 -10z m410 -3 c0
-22 -30 -57 -50 -57 -25 0 -36 -20 -19 -32 11 -7 9 -8 -6 -6 -16 3 -19 11 -18
35 3 31 2 31 -28 23 -17 -5 -38 -15 -46 -22 -13 -10 -15 -9 -12 6 5 25 58 64
67 50 10 -15 47 -34 68 -34 10 0 14 3 11 6 -8 9 11 44 23 44 6 0 10 -6 10 -13z
m190 -11 c14 -16 20 -31 16 -42 -6 -15 -8 -16 -24 0 -10 9 -24 16 -31 16 -8 0
-11 6 -7 16 3 9 6 20 6 25 0 16 16 10 40 -15z m-631 -36 c26 0 51 10 51 21 0
4 -7 5 -17 2 -11 -4 -14 -3 -9 6 5 7 15 10 24 6 8 -3 19 0 24 7 6 10 8 9 8 -4
0 -9 3 -24 7 -34 5 -13 3 -16 -9 -12 -10 4 -15 1 -14 -10 0 -9 -7 -18 -18 -20
-11 -2 -16 0 -12 7 4 6 2 11 -3 11 -6 0 -11 -4 -11 -10 0 -5 -9 -10 -20 -10
-13 0 -17 5 -14 14 4 11 0 13 -15 9 -11 -3 -18 -9 -15 -14 3 -5 -2 -9 -10 -9
-19 0 -30 34 -21 67 l6 25 24 -26 c13 -14 33 -26 44 -26z m-259 31 c0 -5 3
-18 7 -28 6 -17 6 -17 -10 -1 -19 18 -22 38 -7 38 6 0 10 -4 10 -9z m500 -36
c0 -17 -29 -79 -34 -73 -2 1 -1 22 2 46 3 27 9 42 18 42 8 0 14 -7 14 -15z
m-805 -4 c3 -5 2 -12 -3 -15 -5 -3 -9 1 -9 9 0 17 3 19 12 6z m316 -90 c-17
-65 -23 -68 -35 -16 -5 21 -4 26 3 15 15 -22 27 -2 13 20 -7 11 -12 31 -12 45
l0 25 22 -22 c20 -20 20 -25 9 -67z m579 62 c0 -8 -9 -17 -20 -20 -11 -3 -20
-12 -20 -21 0 -11 -3 -13 -11 -5 -14 14 -1 61 19 66 23 5 32 -1 32 -20z m145
-29 c-12 -12 -13 -19 -4 -30 6 -8 17 -14 25 -14 7 0 18 -9 24 -19 17 -32 -10
-38 -32 -8 -11 15 -26 27 -34 27 -9 0 -14 12 -15 38 0 33 -2 35 -11 16 -5 -12
-21 -27 -35 -33 -16 -7 -23 -17 -19 -26 3 -8 1 -15 -4 -15 -5 0 -11 9 -15 20
-6 18 -8 19 -31 4 -13 -9 -24 -24 -23 -33 0 -10 2 -11 6 -3 6 14 43 16 43 2 0
-5 -4 -10 -9 -10 -5 0 -12 -7 -15 -16 -5 -14 -1 -16 24 -11 34 7 40 -7 10 -23
-11 -6 -20 -21 -20 -33 -1 -13 -13 7 -31 48 -18 42 -26 71 -20 73 6 2 11 10
11 17 0 19 30 27 47 14 11 -10 20 -5 46 24 38 40 90 54 95 24 2 -9 -4 -24 -13
-33z m-1069 8 c-4 -3 -11 0 -16 8 -15 24 -11 33 6 15 9 -9 13 -19 10 -23z
m854 -6 c0 -13 -7 -29 -15 -36 -8 -7 -15 -19 -15 -28 0 -13 3 -12 20 3 16 14
20 15 20 3 0 -8 -6 -23 -14 -33 -19 -26 -9 -53 10 -28 11 15 13 15 14 3 0 -17
-19 -40 -32 -40 -4 0 -8 9 -8 19 0 11 -4 22 -9 25 -17 11 -21 67 -6 102 16 39
35 45 35 10z m-142 -18 c-2 -28 -16 -48 -34 -48 -19 0 -17 26 4 49 23 26 31
25 30 -1z m-488 -17 c0 -5 9 -11 20 -14 26 -7 29 -67 4 -67 -13 0 -14 -3 -5
-14 14 -17 4 -46 -17 -46 -13 0 -13 -2 1 -18 13 -14 14 -21 5 -30 -6 -6 -11
-23 -12 -38 -1 -31 -26 -46 -26 -16 0 11 -7 22 -15 26 -8 3 -15 12 -15 21 0
11 6 14 25 9 30 -8 34 10 5 28 -29 19 -26 42 5 34 18 -5 25 -2 25 9 0 8 -7 15
-15 15 -17 0 -20 35 -4 46 6 3 15 0 20 -7 4 -7 11 -10 15 -7 3 4 -3 19 -15 34
-23 29 -27 44 -11 44 6 0 10 -4 10 -9z m430 -12 c0 -19 -32 -30 -51 -18 -12 7
-12 9 0 9 7 0 11 6 7 15 -4 11 1 14 19 13 16 -2 25 -9 25 -19z m-264 -24 c-17
-17 -21 -9 -10 20 5 11 10 13 17 6 6 -6 4 -15 -7 -26z m-242 1 c-3 -7 2 -20
10 -29 21 -21 21 -57 -1 -57 -15 0 -15 -2 1 -19 22 -24 12 -44 -19 -38 -22 4
-23 3 -9 -18 13 -20 13 -25 -1 -39 -9 -8 -16 -18 -15 -21 1 -26 -3 -25 -20 8
-25 46 -25 55 -1 33 27 -25 33 -5 10 33 -21 35 -16 64 6 34 20 -28 30 -7 11
23 -19 27 -14 46 6 26 16 -16 28 -15 28 2 0 8 -7 16 -15 20 -15 5 -21 47 -9
59 11 10 24 -2 18 -17z m633 -8 c-3 -8 -6 -5 -6 6 -1 11 2 17 5 13 3 -3 4 -12
1 -19z m227 -5 c-10 -40 -14 -41 -14 -5 0 18 5 32 10 32 6 0 8 -11 4 -27z
m-710 -108 c-12 -65 -21 -90 -27 -80 -4 8 -5 20 -2 25 3 5 1 19 -5 30 -9 16
-8 20 4 20 12 0 14 5 6 26 -13 34 -13 37 6 30 12 -5 15 1 14 27 -3 47 -1 54
11 34 7 -13 5 -44 -7 -112z m146 94 c-13 -23 -52 -27 -44 -4 4 8 12 15 20 15
8 0 14 5 14 11 0 5 5 7 10 4 7 -4 7 -13 0 -26z m292 -11 c-9 -9 -12 -7 -12 12
0 19 3 21 12 12 9 -9 9 -15 0 -24z m-372 12 c0 -5 -7 -10 -16 -10 -8 0 -12 5
-9 10 3 6 10 10 16 10 5 0 9 -4 9 -10z m144 4 c12 -5 13 -9 3 -25 -6 -10 -17
-19 -24 -19 -7 0 -13 -4 -13 -10 0 -5 -4 -10 -10 -10 -15 0 -12 18 8 45 20 28
16 27 36 19z m66 -34 c0 -13 -9 -22 -25 -26 -17 -4 -25 -13 -25 -27 0 -16 -3
-18 -12 -9 -18 18 15 82 42 82 13 0 20 -7 20 -20z m70 9 c0 -7 10 -20 22 -31
19 -16 20 -22 10 -38 -6 -11 -9 -26 -6 -34 3 -7 -1 -20 -9 -27 -13 -12 -13
-16 -1 -30 13 -14 13 -18 -1 -29 -13 -10 -15 -9 -15 9 0 14 -6 21 -19 21 -26
0 -48 27 -33 42 8 8 15 8 27 -2 17 -14 31 -8 21 9 -10 15 -66 41 -66 30 0 -5
-11 -15 -25 -21 -14 -6 -25 -19 -25 -30 0 -10 -4 -18 -10 -18 -18 0 -10 39 13
62 12 13 35 30 51 38 27 14 29 13 51 -12 20 -23 24 -25 30 -10 6 15 -17 42
-37 42 -4 0 -8 6 -8 14 0 8 -6 17 -12 19 -7 3 -1 6 15 6 15 1 27 -4 27 -10z
m63 -8 c26 -14 38 -51 16 -51 -6 0 -3 -8 7 -17 13 -13 19 -14 22 -5 7 21 32
13 32 -10 0 -19 -2 -20 -10 -8 -8 13 -12 11 -26 -9 l-17 -24 -8 21 c-5 12 -13
22 -18 22 -5 0 -4 -11 2 -25 7 -14 15 -25 20 -25 12 0 8 -38 -5 -44 -10 -5
-10 -7 0 -12 14 -7 16 -40 2 -49 -6 -3 -7 -18 -4 -33 l7 -27 -22 27 c-25 31
-29 57 -6 38 12 -10 15 -9 15 5 0 10 -7 23 -16 30 -16 11 -21 68 -10 120 3 11
5 26 5 33 1 7 6 10 11 7 6 -3 10 -2 10 3 0 5 -11 14 -25 20 -14 6 -25 17 -25
23 0 6 3 9 8 7 4 -2 19 -10 35 -17z m94 4 c9 -25 -4 -29 -17 -6 -7 15 -7 21 0
21 6 0 13 -7 17 -15z m-26 -11 c10 -13 10 -17 -2 -24 -13 -9 -26 6 -28 33 -2
12 16 8 30 -9z m-391 -3 c0 -11 -31 -24 -39 -16 -3 3 1 10 9 15 19 12 30 12
30 1z m-50 -11 c0 -5 -5 -10 -11 -10 -5 0 -7 5 -4 10 3 6 8 10 11 10 2 0 4 -4
4 -10z m546 -38 c-20 -20 -22 -1 -4 31 11 20 12 21 16 3 2 -10 -3 -26 -12 -34z
m100 9 c-20 -22 -21 -41 -1 -41 8 0 15 6 15 14 0 17 27 29 35 15 11 -16 -37
-48 -60 -39 -30 11 -33 62 -3 75 28 13 36 0 14 -24z m-546 16 c0 -12 -34 -47
-45 -47 -11 0 -4 24 12 42 19 21 33 23 33 5z m388 -25 c2 -12 -1 -22 -7 -22
-6 0 -11 4 -11 9 0 5 -3 17 -7 27 -4 12 -2 15 8 12 8 -2 15 -14 17 -26z m-488
-6 c0 -3 -4 -8 -10 -11 -5 -3 -10 -1 -10 4 0 6 5 11 10 11 6 0 10 -2 10 -4z
m30 -16 c0 -11 -7 -20 -15 -20 -13 0 -14 4 -5 20 6 11 13 20 15 20 3 0 5 -9 5
-20z m120 16 c0 -2 -7 -16 -15 -32 -12 -23 -15 -25 -21 -11 -8 23 2 47 21 47
8 0 15 -2 15 -4z m430 -5 c0 -6 -4 -13 -10 -16 -16 -10 -12 -45 5 -45 9 0 15
9 15 22 0 17 3 19 12 10 10 -10 10 -17 0 -32 -6 -11 -12 -29 -12 -40 0 -12 -4
-18 -10 -15 -5 3 -10 14 -10 24 0 10 -7 24 -15 31 -18 15 -19 36 -2 55 14 17
27 19 27 6z m-53 -43 c-3 -7 -5 -2 -5 12 0 14 2 19 5 13 2 -7 2 -19 0 -25z
m203 18 c0 -7 -7 -19 -15 -26 -22 -18 -18 -32 5 -20 25 13 26 0 2 -28 -18 -20
-18 -20 -30 -1 -16 25 -15 40 4 67 17 25 34 29 34 8z m-237 -10 c6 -16 -2 -28
-14 -20 -12 7 -11 34 0 34 5 0 11 -6 14 -14z m-506 -18 c-3 -8 -6 -5 -6 6 -1
11 2 17 5 13 3 -3 4 -12 1 -19z m95 -18 c-9 -17 -20 -30 -24 -30 -14 0 -8 33
8 51 25 27 35 13 16 -21z m192 -30 c11 0 56 -48 56 -61 0 -16 -15 -10 -28 11
-7 11 -19 20 -27 20 -9 0 -21 11 -27 25 l-11 25 -23 -28 c-13 -15 -24 -31 -24
-36 0 -6 -5 -5 -11 1 -13 13 2 42 37 77 16 17 18 16 33 -8 9 -14 20 -26 25
-26z m184 27 c3 -16 1 -17 -17 -7 -25 13 -28 33 -4 28 10 -2 19 -11 21 -21z
m-428 -1 c0 -7 -7 -19 -15 -26 -16 -13 -20 -3 -9 24 8 20 24 21 24 2z m124 -1
c3 -9 -3 -19 -15 -26 -12 -6 -18 -17 -15 -25 8 -20 -2 -17 -13 4 -7 14 -6 25
5 40 18 26 30 28 38 7z m386 6 c0 -18 -18 -21 -30 -6 -10 13 -9 15 9 15 11 0
21 -4 21 -9z m98 -34 c-13 -26 -38 -37 -38 -16 0 17 34 58 43 50 4 -4 1 -19
-5 -34z m-713 2 c0 -15 -7 -25 -17 -27 -10 -2 -18 2 -18 8 0 6 4 9 9 6 14 -9
21 20 8 34 -9 10 -9 11 3 8 8 -3 15 -15 15 -29z m-66 -10 c18 -23 21 -33 12
-42 -8 -8 -11 -7 -11 5 0 9 -9 20 -20 23 -11 3 -20 15 -20 26 0 26 11 23 39
-12z m638 -10 c1 -24 0 -26 -4 -9 -3 14 -10 31 -16 39 -10 11 -9 13 3 9 9 -3
16 -18 17 -39z m63 6 c0 -19 -4 -35 -10 -35 -5 0 -10 -12 -10 -27 -1 -25 -2
-26 -11 -9 -8 13 -8 25 0 43 14 30 14 36 1 28 -14 -9 -13 8 2 23 20 20 28 14
28 -23z m-786 -47 c-10 -16 -22 -8 -17 11 3 10 0 22 -6 25 -6 4 -11 13 -11 19
0 7 9 -1 19 -17 11 -17 18 -33 15 -38z m670 30 c6 -4 7 -10 4 -14 -11 -10 -35
19 -30 36 5 13 6 13 10 0 3 -8 10 -18 16 -22z m228 -10 c-7 -7 -12 -23 -13
-37 l0 -26 -11 23 c-14 27 8 80 26 62 7 -7 6 -14 -2 -22z m-638 -2 c-3 -9 -10
-16 -15 -16 -14 0 -11 28 4 33 16 6 19 3 11 -17z m37 -13 c-10 -17 -10 -16
-11 3 0 23 13 41 18 25 2 -6 -1 -18 -7 -28z m-243 0 c15 -32 16 -63 2 -63 -5
0 -10 -7 -10 -15 0 -8 -8 -15 -17 -15 -15 0 -15 2 -4 9 12 8 12 12 -2 26 -22
22 -22 23 8 17 27 -5 35 15 10 24 -15 6 -22 44 -7 44 4 0 13 -12 20 -27z m132
17 c0 -5 -7 -10 -15 -10 -8 0 -15 5 -15 10 0 6 7 10 15 10 8 0 15 -4 15 -10z
m17 -12 c-3 -8 -6 -5 -6 6 -1 11 2 17 5 13 3 -3 4 -12 1 -19z m168 -24 c-22
-23 -31 -9 -15 21 12 22 15 23 22 10 6 -10 4 -21 -7 -31z m155 -10 c0 -8 -4
-14 -9 -14 -13 0 -41 29 -41 42 0 6 -13 -5 -30 -23 -24 -27 -30 -30 -30 -15 0
10 12 29 26 43 l25 23 30 -21 c16 -11 29 -27 29 -35z m-372 16 c2 -24 2 -24
-9 -5 -7 11 -17 24 -23 28 -7 5 -3 7 9 5 13 -2 21 -12 23 -28z m549 8 c-3 -8
-6 -5 -6 6 -1 11 2 17 5 13 3 -3 4 -12 1 -19z m223 -14 c-18 -21 -24 -10 -8
15 7 12 14 17 16 11 2 -6 -2 -17 -8 -26z m-110 6 c0 -20 -25 -38 -36 -27 -7 6
18 47 28 47 5 0 8 -9 8 -20z m-630 -12 c0 -7 -3 -30 -6 -50 -7 -43 -24 -51
-24 -13 0 14 5 25 11 25 7 0 9 10 5 25 -4 14 -2 25 4 25 5 0 10 -6 10 -12z
m85 -17 c-3 -12 -11 -19 -16 -16 -5 4 -5 14 2 26 13 26 23 18 14 -10z m35 -7
c-18 -21 -24 -10 -8 15 7 12 14 17 16 11 2 -6 -2 -17 -8 -26z m366 8 c-9 -9
-37 8 -31 18 5 8 11 7 21 -1 8 -6 12 -14 10 -17z m-550 4 c16 -17 18 -42 4
-51 -5 -3 -10 -15 -10 -26 0 -28 -25 -23 -26 6 -2 18 3 25 17 25 23 0 25 13 4
30 -15 12 -20 30 -9 30 3 0 12 -6 20 -14z m104 -12 c0 -8 -5 -12 -10 -9 -6 4
-8 11 -5 16 9 14 15 11 15 -7z m148 -9 c-10 -22 -28 -35 -28 -20 0 5 33 45 37
45 1 0 -3 -11 -9 -25z m330 0 c-3 -3 -9 2 -12 12 -6 14 -5 15 5 6 7 -7 10 -15
7 -18z m42 16 c0 -5 -7 -21 -15 -37 -10 -20 -11 -32 -3 -41 14 -17 0 -17 -16
0 -11 11 -11 16 0 32 7 10 11 22 8 26 -6 11 4 29 17 29 5 0 9 -4 9 -9z m-270
-9 c0 -4 -9 -13 -20 -20 -11 -7 -20 -20 -20 -29 0 -14 -3 -14 -12 -5 -9 9 -10
15 -2 20 6 4 13 15 17 25 6 16 37 25 37 9z m80 -8 c0 -8 -4 -12 -10 -9 -5 3
-10 10 -10 16 0 5 5 9 10 9 6 0 10 -7 10 -16z m30 -10 c0 -8 5 -14 10 -14 6 0
10 -9 10 -21 0 -14 -5 -19 -14 -16 -8 3 -16 1 -18 -4 -2 -6 -3 9 -3 34 0 25 3
43 8 40 4 -2 7 -11 7 -19z m246 -9 c-6 -19 -13 -30 -14 -25 -6 16 7 60 17 60
4 0 3 -16 -3 -35z m-309 -5 c6 -12 17 -26 25 -31 10 -6 10 -11 0 -21 -9 -9
-12 -9 -12 5 0 9 -6 20 -14 24 -8 4 -16 15 -18 23 -2 8 -7 19 -13 23 -6 5 -4
7 5 4 8 -2 20 -14 27 -27z m241 -15 c-1 -23 -5 -32 -11 -26 -9 9 -2 61 8 61 2
0 4 -16 3 -35z m107 5 c-9 -10 -15 -26 -11 -35 3 -9 2 -13 -4 -10 -15 10 -12
37 8 55 23 23 30 15 7 -10z m-595 13 c0 -5 -5 -15 -10 -23 -8 -12 -10 -11 -10
8 0 12 5 22 10 22 6 0 10 -3 10 -7z m43 0 c-7 -2 -14 -17 -14 -31 -1 -18 -3
-21 -6 -9 -6 24 3 47 19 46 10 0 10 -2 1 -6z m-102 -53 c5 0 9 -32 9 -71 0
-40 5 -89 11 -110 10 -31 9 -46 -6 -86 -9 -26 -18 -58 -19 -70 -1 -25 -12 -31
-18 -11 -3 7 -8 -6 -11 -29 -4 -24 -18 -62 -31 -85 -13 -24 -22 -48 -20 -53 6
-17 -52 -35 -67 -21 -9 8 -10 8 -4 -3 5 -9 4 -12 -3 -7 -14 9 -16 33 -2 38 6
2 6 8 0 18 -8 13 -10 13 -10 -1 0 -9 -7 -19 -15 -23 -11 -4 -15 2 -15 20 0 24
2 24 49 18 43 -6 50 -4 60 14 14 26 14 35 1 27 -5 -3 -10 2 -11 12 0 14 -2 14
-9 -4 -5 -13 -12 -23 -15 -23 -9 0 3 138 14 159 17 30 24 132 13 161 -10 22
-11 20 -11 -22 -1 -26 -5 -50 -11 -53 -6 -4 -10 24 -10 77 1 77 2 81 15 58 14
-24 14 -24 15 -3 0 21 42 73 59 73 5 0 12 12 17 28 l8 27 4 -27 c2 -16 8 -28
13 -28z m179 38 c-1 -17 -39 -63 -46 -55 -9 9 28 66 44 67 1 0 2 -6 2 -12z
m287 -10 c-3 -8 -6 -5 -6 6 -1 11 2 17 5 13 3 -3 4 -12 1 -19z m-230 -29 c-9
-6 -17 -17 -17 -24 0 -8 -4 -15 -10 -15 -19 0 -10 35 13 46 27 12 39 6 14 -7z
m54 14 c0 -5 2 -16 4 -25 2 -11 -2 -15 -11 -11 -16 6 -19 43 -4 43 6 0 10 -3
11 -7z m283 -18 c-6 -24 -4 -25 20 -19 27 7 30 2 16 -31 -7 -17 -9 -17 -9 -2
-1 9 -7 17 -14 17 -25 0 -37 21 -24 41 16 26 19 24 11 -6z m-658 -12 c-10 -10
-19 5 -10 18 6 11 8 11 12 0 2 -7 1 -15 -2 -18z m515 -69 c4 -54 6 -60 7 -24
1 25 7 52 12 60 18 28 11 -141 -9 -197 -21 -61 -32 -61 -20 0 9 48 11 93 4 85
-3 -3 -12 -30 -20 -61 -13 -50 -13 -64 0 -114 15 -56 11 -133 -6 -133 -5 0 -8
-3 -8 -7 1 -5 1 -24 0 -43 l-2 -35 -14 25 c-8 14 -14 19 -15 12 0 -7 -4 -11
-9 -7 -5 3 -12 -3 -14 -12 -3 -10 -4 -2 -3 19 0 20 5 34 10 30 5 -3 6 2 3 12
-4 10 -8 39 -8 64 -1 43 -2 45 -10 17 -6 -23 -7 -18 -3 20 13 134 14 149 6
131 -7 -17 -9 -16 -19 10 -6 16 -14 57 -17 92 -5 51 -3 64 10 69 22 8 27 -1
35 -75 l8 -67 -4 83 c-2 66 0 82 11 82 8 0 22 9 31 20 27 32 38 19 44 -56z
m-392 9 c0 -48 -2 -54 -11 -36 -9 20 -4 93 7 93 3 0 5 -26 4 -57z m93 25 c21
-25 28 -29 28 -15 0 10 8 17 20 17 18 0 20 -7 20 -81 0 -88 -17 -169 -32 -147
-4 7 -8 39 -8 70 0 32 -5 60 -11 64 -9 5 -10 -14 -5 -72 12 -147 13 -184 5
-184 -4 0 -10 8 -12 18 -3 11 -5 8 -6 -9 0 -14 3 -29 9 -35 5 -5 11 -22 12
-37 1 -16 8 -27 18 -28 10 0 9 -3 -5 -9 -18 -8 -18 -9 5 -9 l25 -1 -25 -13
c-24 -13 -26 -12 -36 22 -7 25 -12 30 -17 19 -3 -9 -4 -24 -3 -35 2 -10 1 -12
-1 -5 -7 18 -23 15 -23 -5 0 -15 -2 -16 -10 -3 -6 10 -10 11 -10 3 0 -7 -4
-13 -10 -13 -5 0 -10 7 -10 15 0 20 -17 19 -23 0 -4 -11 -4 -10 -3 2 1 10 9
18 18 18 9 0 20 4 24 8 4 4 2 7 -4 7 -7 0 -12 7 -12 15 0 8 7 15 15 15 8 0 15
5 15 10 0 6 -8 10 -17 10 -13 0 -14 3 -5 12 14 14 16 154 3 280 -5 47 -7 96
-4 107 8 32 44 26 75 -11z m125 0 c-3 -7 -5 -2 -5 12 0 14 2 19 5 13 2 -7 2
-19 0 -25z m19 -66 c12 -7 26 -188 22 -272 -1 -25 -2 -69 -2 -98 l1 -53 -46 3
c-46 3 -46 3 -51 43 -8 63 12 369 24 377 6 4 18 8 26 8 8 0 20 -4 26 -8z
m-229 -164 c-3 -8 -6 -5 -6 6 -1 11 2 17 5 13 3 -3 4 -12 1 -19z m0 -143 c-28
-28 -39 -18 -32 28 4 23 12 51 18 62 10 18 12 14 20 -27 7 -38 6 -50 -6 -63z
m422 17 c1 -39 -3 -52 -11 -50 -19 7 -31 94 -17 120 12 22 12 22 20 3 4 -11 8
-44 8 -73z m-280 5 c1 -5 -3 -5 -9 -2 -5 3 -10 16 -9 28 0 21 1 21 9 2 5 -11
9 -24 9 -28z m311 -7 c0 -5 -4 -10 -10 -10 -5 0 -10 5 -10 10 0 6 5 10 10 10
6 0 10 -4 10 -10z m-460 -59 c0 -12 -20 -25 -27 -18 -7 7 6 27 18 27 5 0 9 -4
9 -9z m409 -53 c0 7 6 10 12 6 8 -4 7 -9 -2 -15 -21 -13 -29 -11 -29 9 0 10
-6 24 -12 30 -10 10 -10 15 2 22 12 8 16 2 21 -28 3 -20 7 -31 8 -24z m-449
44 c0 -4 -9 -13 -20 -20 -17 -10 -20 -10 -20 2 0 8 8 17 18 19 9 3 18 5 20 6
1 0 2 -2 2 -7z m480 -6 c0 -8 3 -23 6 -33 3 -10 -2 -7 -10 7 -18 30 -20 40 -6
40 6 0 10 -6 10 -14z m-718 -38 c-12 -12 -24 -19 -27 -16 -4 3 4 15 16 27 12
11 25 18 28 16 3 -3 -5 -15 -17 -27z m918 11 c0 -11 5 -29 10 -40 7 -13 7 -19
0 -19 -5 0 -10 6 -10 13 0 8 -9 22 -20 32 -11 10 -20 22 -20 27 0 4 9 8 20 8
14 0 20 -7 20 -21z m-882 -40 c-3 -8 -7 -3 -11 10 -4 17 -3 21 5 13 5 -5 8
-16 6 -23z m866 -11 c-4 -5 -11 -5 -18 1 -7 6 -16 8 -19 4 -4 -3 -7 4 -7 16 0
21 1 21 25 5 14 -9 22 -20 19 -26z m-899 3 c-3 -6 -11 -11 -16 -11 -5 0 -4 6
3 14 14 16 24 13 13 -3z m148 -17 c-6 -16 -23 -19 -23 -4 0 6 -4 10 -10 10 -5
0 -10 -7 -10 -17 0 -9 -3 -14 -6 -10 -13 13 5 35 29 35 18 0 24 -5 20 -14z
m237 9 c0 -9 -43 -23 -52 -17 -16 10 -58 11 -58 2 0 -13 -28 -9 -33 5 -4 9 -8
8 -17 -3 -9 -12 -13 -12 -17 -2 -4 10 -8 10 -19 1 -16 -13 -30 -6 -19 11 4 7
44 10 111 8 57 -1 104 -3 104 -5z m273 -5 c10 2 17 -3 17 -14 0 -13 -3 -14
-15 -4 -10 9 -15 9 -15 1 0 -19 -17 -12 -23 9 -3 14 -1 18 6 13 7 -4 20 -6 30
-5z m112 -2 c14 6 31 -14 20 -24 -3 -3 -10 0 -15 8 -7 10 -10 11 -10 3 0 -7
-6 -13 -14 -13 -8 0 -17 6 -19 13 -4 9 -8 8 -16 -3 -10 -13 -12 -13 -21 0 -16
25 -12 28 26 20 20 -5 42 -6 49 -4z m-751 -11 c-4 -11 0 -15 16 -15 25 0 49
-26 50 -52 0 -10 5 -18 10 -18 6 0 10 -7 10 -16 0 -11 -6 -15 -20 -11 -11 3
-18 1 -14 -4 3 -5 14 -9 25 -9 15 0 18 -5 14 -22 -6 -22 -4 -23 57 -21 35 1
66 2 69 2 4 1 9 21 11 45 3 26 14 52 27 65 23 23 40 29 22 7 -6 -7 -9 -21 -5
-30 3 -9 2 -16 -3 -16 -5 0 -10 -16 -11 -37 -4 -48 -8 -53 -43 -53 -27 0 -30
-3 -24 -22 11 -36 34 -68 49 -68 8 0 16 -9 19 -20 3 -12 11 -18 19 -15 8 3 23
-3 33 -15 18 -20 18 -20 -4 -20 -12 0 -19 4 -16 10 10 17 -7 11 -20 -7 -11
-14 -13 -13 -19 10 -8 32 -46 39 -46 8 0 -24 -19 -31 -85 -31 -33 0 -55 -5
-58 -12 -4 -8 -6 -7 -6 3 -1 10 -13 20 -28 24 -19 4 -23 9 -14 14 20 13 9 46
-17 49 -18 3 -22 -1 -22 -22 0 -14 5 -26 10 -26 6 0 10 -5 10 -12 0 -6 -9 -3
-20 7 -11 10 -19 23 -18 29 0 6 -3 20 -8 31 -8 17 -10 14 -15 -20 l-6 -40 -2
48 c0 26 -5 47 -11 47 -5 0 -10 18 -10 39 0 22 5 43 10 46 6 3 10 25 10 48 l1
42 13 -30 c7 -17 20 -36 30 -44 18 -15 13 -51 -10 -64 -8 -4 -14 -13 -14 -19
0 -7 5 -6 15 2 12 10 15 10 15 -4 0 -10 -9 -16 -22 -17 -17 -1 -18 -3 -6 -6
10 -3 15 -10 11 -20 -5 -13 -3 -13 16 -2 13 9 21 25 22 44 0 16 2 51 3 77 1
30 -2 42 -7 33 -15 -28 -24 -6 -15 37 5 24 10 52 12 63 4 24 5 25 11 25 2 0 2
-7 -1 -15z m36 11 c0 -3 -4 -8 -10 -11 -5 -3 -10 -1 -10 4 0 6 5 11 10 11 6 0
10 -2 10 -4z m30 0 c0 -3 -4 -8 -10 -11 -5 -3 -10 -1 -10 4 0 6 5 11 10 11 6
0 10 -2 10 -4z m428 -3 c-10 -2 -28 -2 -40 0 -13 2 -5 4 17 4 22 1 32 -1 23
-4z m308 -4 c3 -6 2 -15 -4 -21 -6 -6 -11 -2 -15 11 -5 22 7 29 19 10z m34
-10 c0 -5 -4 -9 -10 -9 -5 0 -10 7 -10 16 0 8 5 12 10 9 6 -3 10 -10 10 -16z
m-443 -10 c-20 -11 -51 -38 -67 -61 -25 -35 -30 -50 -30 -102 0 -43 -3 -57
-10 -46 -24 37 -1 130 43 174 33 33 70 56 87 56 8 -1 -2 -10 -23 -21z m177 0
c36 -21 80 -83 72 -103 -2 -6 -9 4 -16 21 l-12 33 -29 -17 c-16 -10 -29 -22
-29 -27 0 -5 9 -1 20 9 20 18 21 18 35 -1 24 -31 19 -54 -12 -55 l-28 -2 28
-4 c22 -4 27 -9 27 -34 0 -47 -46 -118 -66 -101 -4 4 -4 2 -1 -5 14 -24 -19
-19 -35 6 -13 19 -18 22 -18 9 0 -9 5 -20 11 -24 15 -9 -17 -27 -51 -29 -44
-2 -53 17 -30 67 l20 43 -6 -50 c-4 -41 -3 -47 7 -31 6 10 9 36 6 58 -5 38 -4
39 21 36 23 -2 27 1 24 19 -2 14 3 23 15 26 17 4 16 5 -2 12 -11 5 -23 12 -26
17 -3 4 -17 9 -31 10 -17 1 -24 7 -21 15 3 9 0 11 -10 7 -8 -3 -14 -13 -12
-22 1 -9 -2 -23 -8 -29 -14 -18 8 -17 37 2 20 13 25 13 35 1 6 -7 9 -21 5 -30
-7 -18 -29 -21 -39 -6 -12 19 -26 11 -15 -9 13 -26 13 -28 -5 -28 -9 0 -14 6
-11 14 7 17 -26 33 -66 32 -32 -2 -32 -2 7 -8 39 -6 39 -7 13 -14 -16 -4 -28
-12 -28 -17 0 -14 7 -13 36 6 13 9 27 14 30 11 3 -3 -10 -16 -30 -29 -20 -13
-36 -27 -36 -31 0 -5 13 1 29 12 40 29 46 26 21 -10 -12 -16 -20 -32 -17 -35
2 -3 15 11 27 31 28 46 34 40 14 -12 -13 -33 -20 -40 -37 -35 -13 3 -18 1 -13
-6 11 -18 87 -34 129 -28 51 9 103 44 123 84 9 19 18 31 21 29 11 -11 -30 -69
-65 -91 -67 -43 -107 -51 -160 -30 -53 20 -127 84 -120 104 2 8 13 -2 26 -23
12 -21 26 -37 32 -37 13 0 13 17 0 25 -14 9 -36 55 -45 93 -6 31 -5 32 27 33
l33 2 -32 6 c-31 6 -31 6 -18 38 10 23 19 31 29 27 9 -3 16 -10 16 -15 0 -5 7
-9 15 -9 8 0 15 -4 15 -10 0 -5 -6 -10 -12 -10 -9 0 -8 -4 2 -10 21 -14 27
-12 27 6 0 9 -15 26 -34 38 -31 20 -42 36 -25 36 5 0 18 9 30 20 12 12 22 16
22 10 0 -6 7 -4 16 5 11 11 28 14 56 11 47 -6 56 -12 40 -28 -7 -7 -12 -19
-12 -27 1 -9 7 -4 16 12 12 22 18 26 29 17 10 -8 15 -8 20 0 8 13 9 13 -30 33
-16 9 -25 16 -18 17 6 0 28 -9 47 -21z m335 4 c0 -12 -2 -13 -6 -5 -4 9 -9 10
-18 2 -9 -8 -14 -6 -19 5 -4 11 1 15 19 15 17 0 25 -5 24 -17z m-649 -24 c0
-11 -4 -18 -9 -15 -7 5 -21 -14 -25 -34 -1 -3 -5 -11 -9 -18 -5 -7 -6 -21 -2
-31 8 -25 -9 -35 -25 -16 -7 8 -16 12 -21 9 -5 -3 -9 0 -9 7 0 10 -3 10 -12 1
-14 -14 -32 -16 -24 -3 3 5 -1 14 -9 21 -7 6 -11 18 -8 26 3 8 0 14 -6 14 -6
0 -11 12 -10 28 l1 27 8 -25 8 -25 2 25 2 25 8 -25 c6 -19 8 -20 9 -6 1 16 3
17 18 5 10 -8 14 -9 10 -2 -4 6 -3 14 3 18 5 3 10 -1 10 -9 0 -9 8 -16 18 -16
13 0 14 2 4 9 -11 7 -10 10 3 15 9 3 22 3 27 -1 7 -3 8 -1 4 5 -5 8 0 12 13
12 15 0 21 -6 21 -21z m440 -14 c0 -14 5 -25 10 -25 6 0 10 6 9 13 -4 30 3 41
11 20 14 -35 37 -27 31 10 -2 16 10 6 19 -15 7 -18 9 -19 9 -5 1 18 26 23 36
7 3 -5 15 -10 26 -10 10 0 19 -4 19 -10 0 -5 5 -9 12 -7 14 2 20 -35 12 -72
-4 -20 -7 -22 -15 -10 -7 12 -9 12 -9 -1 0 -13 -2 -13 -9 -1 -5 8 -7 20 -5 26
3 7 -2 15 -11 19 -9 3 -14 9 -12 13 3 5 -7 8 -23 8 -17 0 -26 -4 -23 -12 7
-17 -39 -43 -65 -36 -12 3 -22 10 -22 15 0 5 -5 6 -10 3 -6 -4 -9 -3 -8 2 3
11 -32 76 -46 85 -6 4 6 8 27 8 33 0 37 -3 37 -25z m261 -50 c1 22 4 17 9 -20
l7 -50 2 50 c2 38 4 45 11 30 10 -24 12 -120 3 -166 -5 -28 -7 -30 -14 -14 -6
16 -8 12 -9 -15 -2 -32 -3 -33 -10 -10 l-8 25 -1 -24 c-2 -41 -17 -5 -21 49 0
8 -9 -3 -20 -25 -27 -55 -60 -94 -67 -77 -7 17 -23 15 -23 -3 0 -8 -4 -15 -10
-15 -5 0 -8 10 -6 23 3 12 5 30 5 40 1 10 9 17 20 17 15 0 18 -5 14 -22 l-6
-23 27 24 c27 25 36 56 14 48 -7 -2 -12 -9 -11 -14 1 -6 -9 -8 -22 -5 -23 4
-24 8 -19 46 8 48 5 44 24 46 37 5 58 -2 69 -22 8 -16 9 -17 4 -3 -13 37 -16
128 -4 121 7 -5 11 2 12 16 0 17 4 12 14 -17 13 -40 13 -40 16 -10z m-1044 -2
c-3 -10 -5 -4 -5 12 0 17 2 24 5 18 2 -7 2 -21 0 -30z m923 -27 c0 -8 -4 -18
-10 -21 -5 -3 -10 -1 -10 6 0 7 -3 9 -6 6 -4 -4 -2 -12 4 -20 8 -9 8 -24 0
-52 -5 -22 -15 -66 -21 -97 -8 -44 -15 -58 -28 -58 -15 0 -16 4 -6 36 10 34 9
38 -17 59 -16 13 -25 28 -22 34 4 6 3 11 -3 11 -10 0 -8 31 4 49 3 6 -3 15
-12 21 -15 8 -13 9 9 4 19 -4 36 0 55 15 33 24 63 27 63 7z m-183 -73 c-2 -16
-4 -5 -4 22 0 28 2 40 4 28 2 -13 2 -35 0 -50z m-777 21 c0 -8 -5 -12 -10 -9
-6 4 -8 11 -5 16 9 14 15 11 15 -7z m17 -36 c-2 -13 -4 -5 -4 17 -1 22 1 32 4
23 2 -10 2 -28 0 -40z m813 -30 c8 -26 15 -36 25 -32 22 9 19 -36 -4 -63 -26
-32 -46 -30 -25 2 9 14 14 28 11 31 -3 3 -8 -4 -12 -15 -4 -13 -15 -21 -28
-21 -18 0 -19 -2 -7 -10 11 -7 -3 -9 -45 -9 -44 1 -52 3 -30 8 17 3 29 11 29
16 -1 6 2 9 7 8 4 -2 6 4 3 12 -4 8 -2 15 3 15 11 0 43 69 43 93 0 8 3 24 7
34 7 15 8 14 11 -7 1 -14 7 -42 12 -62z m-449 30 c1 -13 1 -26 0 -30 0 -5 3
-8 8 -8 10 0 21 -36 13 -45 -3 -3 -11 8 -18 25 -7 17 -19 29 -26 28 -7 -2 -13
6 -13 17 0 11 -4 23 -10 27 -5 4 2 8 18 8 21 0 27 -5 28 -22z m-241 -88 c0 -5
-7 -7 -15 -4 -8 4 -15 8 -15 10 0 2 7 4 15 4 8 0 15 -4 15 -10z m896 -35 c-15
-23 -15 -25 0 -25 21 0 13 -9 -12 -14 -15 -3 -19 3 -21 28 -1 23 1 26 6 12 5
-14 10 -16 15 -8 4 7 4 17 0 23 -3 6 0 15 7 20 21 13 23 -8 5 -36z m-700 -20
c-17 -16 -26 -19 -26 -10 0 7 9 17 20 20 11 3 20 14 21 23 0 11 2 13 6 4 3 -7
-7 -24 -21 -37z m-76 -14 c0 -5 -11 -8 -25 -8 -14 0 -25 3 -25 8 0 5 11 9 25
9 14 0 25 -4 25 -9z m119 -7 c2 -2 2 -7 -2 -10 -8 -9 -47 6 -47 17 0 9 37 3
49 -7z m99 -1 c2 -7 -1 -13 -7 -13 -6 0 -11 6 -12 13 0 10 -2 10 -6 0 -5 -15
-49 -17 -57 -4 -8 12 5 16 46 16 17 0 33 -6 36 -12z m46 1 c25 -10 19 -22 -9
-16 -14 2 -25 8 -25 13 0 10 12 11 34 3z m204 -14 c5 -13 3 -13 -11 -1 -10 8
-17 9 -17 3 0 -6 -9 -10 -20 -9 -22 1 -27 13 -7 20 24 8 50 2 55 -13z m69 7
c2 -3 0 -8 -6 -12 -6 -3 -11 0 -11 7 0 10 -2 10 -9 -1 -9 -13 -31 -8 -31 8 0
8 48 6 57 -2z m143 5 c0 -4 -29 -8 -65 -9 -36 0 -65 2 -65 5 0 4 29 8 65 9 36
1 65 -1 65 -5z m-355 -12 c3 -5 -1 -10 -9 -10 -9 0 -16 5 -16 10 0 6 4 10 9
10 6 0 13 -4 16 -10z m30 0 c3 -5 1 -10 -4 -10 -6 0 -11 5 -11 10 0 6 2 10 4
10 3 0 8 -4 11 -10z m35 0 c0 -5 -4 -10 -10 -10 -5 0 -10 5 -10 10 0 6 5 10
10 10 6 0 10 -4 10 -10z"/>
<path d="M1136 2291 c-5 -7 -14 -10 -22 -7 -24 9 -15 -10 11 -24 30 -16 41 -8
28 22 -7 16 -12 18 -17 9z"/>
<path d="M1160 2290 c0 -13 11 -13 30 0 12 8 11 10 -7 10 -13 0 -23 -4 -23
-10z"/>
<path d="M1190 2266 c0 -8 6 -16 13 -19 6 -2 1 -2 -12 0 l-24 4 24 -25 c22
-23 24 -24 31 -6 9 25 -1 60 -18 60 -8 0 -14 -6 -14 -14z"/>
<path d="M1126 2184 c-9 -24 -7 -31 5 -12 7 14 15 15 34 8 16 -6 27 -6 31 2 4
6 3 8 -4 4 -6 -3 -13 -2 -17 4 -10 16 -42 12 -49 -6z"/>
<path d="M1026 2054 c-17 -12 -17 -14 -4 -14 9 0 20 5 23 11 11 17 2 18 -19 3z"/>
<path d="M575 2170 c3 -5 8 -10 11 -10 2 0 4 5 4 10 0 6 -5 10 -11 10 -5 0 -7
-4 -4 -10z"/>
<path d="M760 2120 c0 -5 5 -10 11 -10 5 0 7 5 4 10 -3 6 -8 10 -11 10 -2 0
-4 -4 -4 -10z"/>
<path d="M707 2084 c5 -13 52 -29 60 -20 10 10 -8 24 -36 28 -20 3 -27 0 -24
-8z"/>
<path d="M850 1940 c0 -5 7 -10 15 -10 8 0 15 5 15 10 0 6 -7 10 -15 10 -8 0
-15 -4 -15 -10z"/>
<path d="M1155 1600 c3 -5 11 -10 16 -10 6 0 7 5 4 10 -3 6 -11 10 -16 10 -6
0 -7 -4 -4 -10z"/>
<path d="M1136 1082 c-4 -18 -5 -36 -2 -39 11 -12 17 5 14 39 l-3 33 -9 -33z"/>
<path d="M1151 955 c0 -64 1 -68 15 -50 10 13 12 30 8 50 -15 69 -23 69 -23 0z"/>
<path d="M900 980 c0 -14 -7 -34 -15 -44 -8 -11 -15 -25 -15 -30 0 -6 5 -3 11
7 5 9 17 17 24 17 16 0 18 24 5 55 -8 18 -9 18 -10 -5z"/>
<path d="M871 974 c0 -11 3 -14 6 -6 3 7 2 16 -1 19 -3 4 -6 -2 -5 -13z"/>
<path d="M590 726 c0 -8 4 -17 9 -20 5 -4 7 3 4 14 -6 23 -13 26 -13 6z"/>
<path d="M626 655 c4 -8 8 -15 10 -15 2 0 4 7 4 15 0 8 -4 15 -10 15 -5 0 -7
-7 -4 -15z"/>
<path d="M502 620 c0 -14 2 -19 5 -12 2 6 2 18 0 25 -3 6 -5 1 -5 -13z"/>
<path d="M608 556 c-24 -18 -23 -25 5 -24 87 5 152 -11 100 -25 -10 -3 0 -5
22 -6 37 -1 88 17 58 20 -22 3 -27 4 -53 18 -13 8 -39 14 -57 13 -18 -1 -35 3
-38 8 -8 13 -16 12 -37 -4z"/>
<path d="M648 503 c6 -2 18 -2 25 0 6 3 1 5 -13 5 -14 0 -19 -2 -12 -5z"/>
<path d="M1021 755 c0 -16 4 -39 9 -50 7 -17 9 -16 9 10 0 17 -4 39 -9 50 -7
17 -9 16 -9 -10z"/>
<path d="M1150 750 c0 -5 7 -10 16 -10 8 0 12 5 9 10 -3 6 -10 10 -16 10 -5 0
-9 -4 -9 -10z"/>
<path d="M990 736 c0 -8 5 -18 10 -21 6 -3 10 1 10 9 0 8 -4 18 -10 21 -5 3
-10 -1 -10 -9z"/>
<path d="M1054 720 c1 -31 4 -35 28 -33 21 2 26 -2 23 -18 -4 -20 9 -26 20 -9
3 6 2 10 -4 10 -10 0 -8 39 4 61 4 8 -4 1 -19 -15 -14 -16 -26 -24 -26 -17 0
7 -4 10 -9 6 -5 -3 -12 7 -14 22 -4 21 -4 20 -3 -7z"/>
<path d="M910 680 c8 -5 20 -10 25 -10 6 0 3 5 -5 10 -8 5 -19 10 -25 10 -5 0
-3 -5 5 -10z"/>
<path d="M1150 680 c-13 -8 -13 -10 2 -10 9 0 20 5 23 10 8 13 -5 13 -25 0z"/>
<path d="M1032 629 c2 -6 8 -10 13 -10 5 0 11 4 13 10 2 6 -4 11 -13 11 -9 0
-15 -5 -13 -11z"/>
<path d="M1138 613 c12 -2 30 -2 40 0 9 3 -1 5 -23 4 -22 0 -30 -2 -17 -4z"/>
<path d="M1100 601 c11 -8 12 -11 2 -11 -7 0 -10 -4 -7 -10 6 -10 -7 -14 -32
-11 -9 1 -12 -11 -12 -36 2 -30 3 -33 6 -10 2 15 9 25 14 22 5 -4 9 -2 9 4 0
6 7 7 17 4 9 -4 14 -2 10 3 -3 6 -2 16 2 23 7 10 13 10 29 2 11 -6 27 -11 34
-11 16 1 -28 25 -62 34 -19 6 -21 5 -10 -3z"/>
<path d="M1137 551 c23 -22 39 -28 28 -11 -3 5 -16 15 -28 21 l-22 11 22 -21z"/>
<path d="M741 724 c0 -11 3 -14 6 -6 3 7 2 16 -1 19 -3 4 -6 -2 -5 -13z"/>
<path d="M1408 733 c7 -3 16 -2 19 1 4 3 -2 6 -13 5 -11 0 -14 -3 -6 -6z"/>
<path d="M1307 723 c-12 -12 -7 -33 7 -33 9 0 14 9 13 20 -1 20 -9 25 -20 13z"/>
<path d="M1324 617 c5 -21 4 -27 -5 -21 -8 4 -9 3 -5 -5 4 -6 12 -9 17 -6 10
7 7 41 -5 52 -5 5 -6 -5 -2 -20z"/>
<path d="M1353 1060 c0 -41 2 -58 4 -37 2 20 2 54 0 75 -2 20 -4 3 -4 -38z"/>
<path d="M1382 1065 c0 -16 2 -22 5 -12 2 9 2 23 0 30 -3 6 -5 -1 -5 -18z"/>
<path d="M885 231 c-6 -11 42 -67 51 -58 4 3 -5 20 -19 37 -14 16 -28 26 -32
21z"/>
<path d="M1625 230 c-3 -5 9 -24 27 -40 l32 -30 -227 0 c-145 0 -227 -4 -227
-10 0 -6 32 -10 75 -10 60 0 75 -3 75 -15 0 -10 -10 -15 -31 -15 -28 0 -31 -3
-27 -24 3 -14 1 -31 -4 -38 -11 -18 -47 28 -48 61 0 19 -3 22 -11 14 -14 -14
-5 -56 17 -77 35 -36 83 -10 68 36 -5 15 -2 19 13 16 13 -2 19 -14 21 -46 5
-67 22 -49 22 24 l0 65 32 -3 c37 -4 50 -27 19 -35 -26 -7 -26 -14 -2 -41 11
-14 30 -22 50 -22 21 0 31 -5 31 -15 0 -8 5 -15 10 -15 6 0 10 28 10 65 l0 65
59 0 c33 0 63 -4 66 -10 4 -6 -9 -10 -33 -10 -68 0 -76 -28 -27 -94 22 -29 31
-10 12 23 -25 42 -22 53 16 49 30 -3 32 -6 35 -45 5 -67 22 -51 22 20 0 36 5
68 12 75 9 9 9 12 -2 13 -8 0 -29 18 -47 40 -17 22 -34 35 -38 29z m-97 -127
c-3 -33 -7 -38 -30 -41 -32 -4 -35 4 -12 36 8 12 12 27 9 32 -3 6 3 10 15 10
18 0 21 -5 18 -37z"/>
<path d="M683 162 c-164 -1 -263 -6 -263 -12 0 -6 14 -10 30 -10 23 0 30 -4
30 -20 0 -21 -15 -27 -25 -10 -4 6 -11 8 -16 4 -12 -7 50 -94 68 -94 18 0 16
7 -6 32 -17 18 -18 22 -5 35 8 8 14 23 14 34 0 12 7 19 20 19 13 0 20 -7 20
-20 0 -11 -7 -20 -15 -20 -8 0 -15 -4 -15 -10 0 -5 7 -10 15 -10 10 0 15 -11
15 -35 0 -24 5 -35 15 -35 12 0 15 14 15 65 l0 65 69 0 c70 0 94 -11 71 -33
-10 -9 -14 -9 -17 1 -6 17 -68 15 -83 -3 -13 -16 -6 -48 18 -76 25 -29 35 -11
12 25 -21 36 -18 46 14 46 13 0 28 -12 38 -30 13 -23 24 -30 48 -30 20 0 30
-5 30 -15 0 -8 7 -15 15 -15 12 0 15 14 15 65 0 63 1 65 25 65 18 0 25 -5 25
-19 0 -11 -6 -21 -12 -24 -9 -3 -6 -12 9 -28 20 -20 23 -21 29 -6 3 9 15 17
25 17 15 0 19 -7 19 -35 0 -24 5 -35 15 -35 12 0 15 13 15 59 0 33 3 66 6 74
3 8 -1 16 -8 18 -7 2 -131 3 -275 1z m97 -62 c0 -36 -2 -40 -25 -40 -29 0 -31
7 -9 38 8 12 12 27 9 32 -3 6 1 10 9 10 12 0 16 -10 16 -40z m150 20 c0 -13
-7 -20 -20 -20 -13 0 -20 7 -20 20 0 13 7 20 20 20 13 0 20 -7 20 -20z"/>
<path d="M980 150 c0 -5 21 -10 46 -10 l45 0 -3 -37 c-2 -30 -7 -38 -23 -38
-28 0 -33 35 -6 42 25 6 28 23 4 23 -25 -1 -53 -24 -53 -44 0 -27 28 -49 55
-43 19 3 25 0 25 -14 0 -11 7 -19 15 -19 12 0 15 13 15 59 0 33 3 66 6 75 5
14 -4 16 -60 16 -37 0 -66 -4 -66 -10z"/>
</g>
</svg>
